<svg xmlns="http://www.w3.org/2000/svg" viewBox="0 0 512 512" width="512" height="512">
  <defs>
    <linearGradient id="bgGrad" x1="0%" y1="0%" x2="100%" y2="100%">
      <stop offset="0%" stop-color="#0f172a"/>
      <stop offset="100%" stop-color="#1e293b"/>
    </linearGradient>
    <linearGradient id="accentGrad" x1="0%" y1="0%" x2="100%" y2="100%">
      <stop offset="0%" stop-color="#818cf8"/>
      <stop offset="100%" stop-color="#c084fc"/>
    </linearGradient>
    <linearGradient id="boltGrad" x1="0%" y1="0%" x2="100%" y2="100%">
      <stop offset="0%" stop-color="#fef08a"/>
      <stop offset="100%" stop-color="#f59e0b"/>
    </linearGradient>
  </defs>

  <!-- Background -->
  <rect width="512" height="512" rx="112" fill="url(#bgGrad)" />
  <rect x="16" y="16" width="480" height="480" rx="96" fill="none" stroke="url(#accentGrad)" stroke-width="8" stroke-opacity="0.4"/>

  <!-- Calendar Base -->
  <rect x="96" y="128" width="320" height="280" rx="32" fill="#1e293b" stroke="#334155" stroke-width="8"/>
  <path d="M 96 160 C 96 142.3, 110.3 128, 128 128 L 384 128 C 401.7 128, 416 142.3, 416 160 L 416 208 L 96 208 Z" fill="url(#accentGrad)"/>

  <!-- Calendar Binder Rings -->
  <rect x="160" y="96" width="24" height="64" rx="12" fill="#f8fafc"/>
  <rect x="328" y="96" width="24" height="64" rx="12" fill="#f8fafc"/>

  <!-- Grid Cells -->
  <rect x="136" y="240" width="64" height="48" rx="12" fill="#fef08a"/>
  <rect x="224" y="240" width="64" height="48" rx="12" fill="#bae6fd"/>
  <rect x="312" y="240" width="64" height="48" rx="12" fill="#bbf7d0"/>

  <rect x="136" y="312" width="64" height="48" rx="12" fill="#bae6fd"/>
  <rect x="224" y="312" width="64" height="48" rx="12" fill="#bbf7d0"/>
  <rect x="312" y="312" width="64" height="48" rx="12" fill="#fef08a"/>

  <!-- Lightning Bolt Badge -->
  <circle cx="384" cy="384" r="56" fill="#0f172a" stroke="url(#accentGrad)" stroke-width="6"/>
  <path d="M 388 344 L 356 392 L 384 392 L 380 424 L 412 376 L 384 376 Z" fill="url(#boltGrad)"/>
</svg>
